<?xml version="1.0" encoding="UTF-8" standalone="no"?>
<!DOCTYPE svg PUBLIC "-//W3C//DTD SVG 1.1//EN" "http://www.w3.org/Graphics/SVG/1.1/DTD/svg11.dtd">
<svg xmlns="http://www.w3.org/2000/svg" xmlns:xl="http://www.w3.org/1999/xlink" version="1.1" viewBox="437 693 40 102" width="40pt" height="102pt" xmlns:dc="http://purl.org/dc/elements/1.1/">
  <metadata> Produced by OmniGraffle 7.2.2 
    <dc:date>2017-03-24 04:06:47 +0000</dc:date>
  </metadata>
  <defs>
    <linearGradient x1="0" x2="1" id="Gradient" gradientUnits="userSpaceOnUse">
      <stop offset="0" stop-color="#fdffff"/>
      <stop offset="1" stop-color="#56dd61"/>
    </linearGradient>
    <linearGradient id="Obj_Gradient" xl:href="#Gradient" gradientTransform="translate(457.09756 694.0849) rotate(90) scale(37.2445)"/>
  </defs>
  <g stroke="none" stroke-opacity="1" stroke-dasharray="none" fill="none" fill-opacity="1">
    <title>Objects</title>
    <g>
      <title>Macerators</title>
      <line x1="457.09756" y1="712.7072" x2="457.77847" y2="765.987" stroke="black" stroke-linecap="round" stroke-linejoin="round" stroke-width="2"/>
      <rect x="441.1287" y="738.0772" width="33.299583" height="55.819586" fill="#56dd61"/>
      <rect x="441.1287" y="738.0772" width="33.299583" height="55.819586" stroke="black" stroke-linecap="round" stroke-linejoin="round" stroke-width="1"/>
      <rect x="444.66977" y="741.487" width="11.4" height="6.1249934" fill="white"/>
      <rect x="444.66977" y="741.487" width="11.4" height="6.1249934" stroke="black" stroke-linecap="round" stroke-linejoin="round" stroke-width=".5"/>
      <rect x="459.48716" y="741.487" width="11.4" height="6.1249934" fill="white"/>
      <rect x="459.48716" y="741.487" width="11.4" height="6.1249934" stroke="black" stroke-linecap="round" stroke-linejoin="round" stroke-width=".5"/>
      <rect x="444.66977" y="747.612" width="11.4" height="6.1249934" fill="white"/>
      <rect x="444.66977" y="747.612" width="11.4" height="6.1249934" stroke="black" stroke-linecap="round" stroke-linejoin="round" stroke-width=".5"/>
      <rect x="444.66977" y="753.737" width="11.4" height="6.1249934" fill="white"/>
      <rect x="444.66977" y="753.737" width="11.4" height="6.1249934" stroke="black" stroke-linecap="round" stroke-linejoin="round" stroke-width=".5"/>
      <rect x="444.66977" y="759.862" width="11.4" height="6.1249934" fill="white"/>
      <rect x="444.66977" y="759.862" width="11.4" height="6.1249934" stroke="black" stroke-linecap="round" stroke-linejoin="round" stroke-width=".5"/>
      <rect x="444.66977" y="765.987" width="11.4" height="6.1249934" fill="white"/>
      <rect x="444.66977" y="765.987" width="11.4" height="6.1249934" stroke="black" stroke-linecap="round" stroke-linejoin="round" stroke-width=".5"/>
      <rect x="444.66977" y="772.112" width="11.4" height="6.1249934" fill="white"/>
      <rect x="444.66977" y="772.112" width="11.4" height="6.1249934" stroke="black" stroke-linecap="round" stroke-linejoin="round" stroke-width=".5"/>
      <rect x="444.66977" y="778.237" width="11.4" height="6.1249934" fill="white"/>
      <rect x="444.66977" y="778.237" width="11.4" height="6.1249934" stroke="black" stroke-linecap="round" stroke-linejoin="round" stroke-width=".5"/>
      <rect x="444.66977" y="784.362" width="11.4" height="6.1249934" fill="white"/>
      <rect x="444.66977" y="784.362" width="11.4" height="6.1249934" stroke="black" stroke-linecap="round" stroke-linejoin="round" stroke-width=".5"/>
      <rect x="459.48716" y="747.612" width="11.4" height="6.1249934" fill="white"/>
      <rect x="459.48716" y="747.612" width="11.4" height="6.1249934" stroke="black" stroke-linecap="round" stroke-linejoin="round" stroke-width=".5"/>
      <rect x="459.48716" y="753.737" width="11.4" height="6.1249934" fill="white"/>
      <rect x="459.48716" y="753.737" width="11.4" height="6.1249934" stroke="black" stroke-linecap="round" stroke-linejoin="round" stroke-width=".5"/>
      <rect x="459.48716" y="759.862" width="11.4" height="6.1249934" fill="white"/>
      <rect x="459.48716" y="759.862" width="11.4" height="6.1249934" stroke="black" stroke-linecap="round" stroke-linejoin="round" stroke-width=".5"/>
      <rect x="459.48716" y="765.987" width="11.4" height="6.1249934" fill="white"/>
      <rect x="459.48716" y="765.987" width="11.4" height="6.1249934" stroke="black" stroke-linecap="round" stroke-linejoin="round" stroke-width=".5"/>
      <rect x="459.48716" y="772.112" width="11.4" height="6.1249934" fill="white"/>
      <rect x="459.48716" y="772.112" width="11.4" height="6.1249934" stroke="black" stroke-linecap="round" stroke-linejoin="round" stroke-width=".5"/>
      <rect x="459.48716" y="778.237" width="11.4" height="6.1249934" fill="white"/>
      <rect x="459.48716" y="778.237" width="11.4" height="6.1249934" stroke="black" stroke-linecap="round" stroke-linejoin="round" stroke-width=".5"/>
      <rect x="459.48716" y="784.362" width="11.4" height="6.1249934" fill="white"/>
      <rect x="459.48716" y="784.362" width="11.4" height="6.1249934" stroke="black" stroke-linecap="round" stroke-linejoin="round" stroke-width=".5"/>
      <ellipse cx="457.09756" cy="712.7072" rx="18.86483" ry="18.622279" fill="url(#Obj_Gradient)"/>
      <ellipse cx="457.09756" cy="712.7072" rx="18.86483" ry="18.622279" stroke="#777878" stroke-linecap="round" stroke-linejoin="round" stroke-width="1"/>
    </g>
  </g>
</svg>
