<?xml version="1.0" encoding="UTF-8" standalone="no"?>
<!DOCTYPE svg PUBLIC "-//W3C//DTD SVG 1.1//EN" "http://www.w3.org/Graphics/SVG/1.1/DTD/svg11.dtd">
<svg xmlns="http://www.w3.org/2000/svg" xmlns:xl="http://www.w3.org/1999/xlink" version="1.1" viewBox="135 693 40 101" width="40pt" height="101pt" xmlns:dc="http://purl.org/dc/elements/1.1/">
  <metadata> Produced by OmniGraffle 7.2.2 
    <dc:date>2017-03-24 04:06:47 +0000</dc:date>
  </metadata>
  <defs>
    <linearGradient x1="0" x2="1" id="Gradient" gradientUnits="userSpaceOnUse">
      <stop offset="0" stop-color="#fdffff"/>
      <stop offset="1" stop-color="#b9b9b9"/>
    </linearGradient>
    <linearGradient id="Obj_Gradient" xl:href="#Gradient" gradientTransform="translate(155.30116 694.0849) rotate(90) scale(37.2445)"/>
  </defs>
  <g stroke="none" stroke-opacity="1" stroke-dasharray="none" fill="none" fill-opacity="1">
    <title>Objects</title>
    <g>
      <title>Macerators</title>
      <line x1="155.30116" y1="712.7072" x2="154.90747" y2="765.4098" stroke="black" stroke-linecap="round" stroke-linejoin="round" stroke-width="2"/>
      <ellipse cx="155.30116" cy="712.7072" rx="18.86483" ry="18.622279" fill="url(#Obj_Gradient)"/>
      <ellipse cx="155.30116" cy="712.7072" rx="18.86483" ry="18.622279" stroke="#777878" stroke-linecap="round" stroke-linejoin="round" stroke-width="1"/>
      <rect x="138.25768" y="737.5" width="33.299583" height="55.819586" fill="#cbcbcb"/>
      <rect x="138.25768" y="737.5" width="33.299583" height="55.819586" stroke="black" stroke-linecap="round" stroke-linejoin="round" stroke-width="1"/>
      <rect x="142.3913" y="740.8635" width="11.4" height="6.1249934" fill="white"/>
      <rect x="142.3913" y="740.8635" width="11.4" height="6.1249934" stroke="black" stroke-linecap="round" stroke-linejoin="round" stroke-width=".5"/>
      <rect x="157.2087" y="740.8635" width="11.4" height="6.1249934" fill="white"/>
      <rect x="157.2087" y="740.8635" width="11.4" height="6.1249934" stroke="black" stroke-linecap="round" stroke-linejoin="round" stroke-width=".5"/>
      <rect x="142.3913" y="746.9885" width="11.4" height="6.1249934" fill="white"/>
      <rect x="142.3913" y="746.9885" width="11.4" height="6.1249934" stroke="black" stroke-linecap="round" stroke-linejoin="round" stroke-width=".5"/>
      <rect x="142.3913" y="753.1135" width="11.4" height="6.1249934" fill="white"/>
      <rect x="142.3913" y="753.1135" width="11.4" height="6.1249934" stroke="black" stroke-linecap="round" stroke-linejoin="round" stroke-width=".5"/>
      <rect x="142.3913" y="759.2385" width="11.4" height="6.1249934" fill="white"/>
      <rect x="142.3913" y="759.2385" width="11.4" height="6.1249934" stroke="black" stroke-linecap="round" stroke-linejoin="round" stroke-width=".5"/>
      <rect x="142.3913" y="765.3635" width="11.4" height="6.1249934" fill="white"/>
      <rect x="142.3913" y="765.3635" width="11.4" height="6.1249934" stroke="black" stroke-linecap="round" stroke-linejoin="round" stroke-width=".5"/>
      <rect x="142.3913" y="771.4885" width="11.4" height="6.1249934" fill="white"/>
      <rect x="142.3913" y="771.4885" width="11.4" height="6.1249934" stroke="black" stroke-linecap="round" stroke-linejoin="round" stroke-width=".5"/>
      <rect x="142.3913" y="777.6135" width="11.4" height="6.1249934" fill="white"/>
      <rect x="142.3913" y="777.6135" width="11.4" height="6.1249934" stroke="black" stroke-linecap="round" stroke-linejoin="round" stroke-width=".5"/>
      <rect x="142.3913" y="783.7385" width="11.4" height="6.1249934" fill="white"/>
      <rect x="142.3913" y="783.7385" width="11.4" height="6.1249934" stroke="black" stroke-linecap="round" stroke-linejoin="round" stroke-width=".5"/>
      <rect x="157.2087" y="746.9885" width="11.4" height="6.1249934" fill="white"/>
      <rect x="157.2087" y="746.9885" width="11.4" height="6.1249934" stroke="black" stroke-linecap="round" stroke-linejoin="round" stroke-width=".5"/>
      <rect x="157.2087" y="753.1135" width="11.4" height="6.1249934" fill="white"/>
      <rect x="157.2087" y="753.1135" width="11.4" height="6.1249934" stroke="black" stroke-linecap="round" stroke-linejoin="round" stroke-width=".5"/>
      <rect x="157.2087" y="759.2385" width="11.4" height="6.1249934" fill="white"/>
      <rect x="157.2087" y="759.2385" width="11.4" height="6.1249934" stroke="black" stroke-linecap="round" stroke-linejoin="round" stroke-width=".5"/>
      <rect x="157.2087" y="765.3635" width="11.4" height="6.1249934" fill="white"/>
      <rect x="157.2087" y="765.3635" width="11.4" height="6.1249934" stroke="black" stroke-linecap="round" stroke-linejoin="round" stroke-width=".5"/>
      <rect x="157.2087" y="771.4885" width="11.4" height="6.1249934" fill="white"/>
      <rect x="157.2087" y="771.4885" width="11.4" height="6.1249934" stroke="black" stroke-linecap="round" stroke-linejoin="round" stroke-width=".5"/>
      <rect x="157.2087" y="777.6135" width="11.4" height="6.1249934" fill="white"/>
      <rect x="157.2087" y="777.6135" width="11.4" height="6.1249934" stroke="black" stroke-linecap="round" stroke-linejoin="round" stroke-width=".5"/>
      <rect x="157.2087" y="783.7385" width="11.4" height="6.1249934" fill="white"/>
      <rect x="157.2087" y="783.7385" width="11.4" height="6.1249934" stroke="black" stroke-linecap="round" stroke-linejoin="round" stroke-width=".5"/>
    </g>
  </g>
</svg>
