<?xml version="1.0" encoding="UTF-8" standalone="no"?>
<!DOCTYPE svg PUBLIC "-//W3C//DTD SVG 1.1//EN" "http://www.w3.org/Graphics/SVG/1.1/DTD/svg11.dtd">
<svg xmlns="http://www.w3.org/2000/svg" xmlns:xl="http://www.w3.org/1999/xlink" version="1.1" viewBox="235 693 40 101" width="40pt" height="101pt" xmlns:dc="http://purl.org/dc/elements/1.1/">
  <metadata> Produced by OmniGraffle 7.2.2 
    <dc:date>2017-03-24 04:06:47 +0000</dc:date>
  </metadata>
  <defs>
    <linearGradient x1="0" x2="1" id="Gradient" gradientUnits="userSpaceOnUse">
      <stop offset="0" stop-color="#fdffff"/>
      <stop offset="1" stop-color="#eef527"/>
    </linearGradient>
    <linearGradient id="Obj_Gradient" xl:href="#Gradient" gradientTransform="translate(255.07717 694.0849) rotate(90) scale(37.2445)"/>
  </defs>
  <g stroke="none" stroke-opacity="1" stroke-dasharray="none" fill="none" fill-opacity="1">
    <title>Objects</title>
    <g>
      <title>Macerators</title>
      <line x1="255.07717" y1="712.7072" x2="255.07717" y2="765.4098" stroke="black" stroke-linecap="round" stroke-linejoin="round" stroke-width="2"/>
      <rect x="238.42737" y="737.5" width="33.299583" height="55.819586" fill="#eef527"/>
      <rect x="238.42737" y="737.5" width="33.299583" height="55.819586" stroke="black" stroke-linecap="round" stroke-linejoin="round" stroke-width="1"/>
      <rect x="241.96847" y="740.9098" width="11.4" height="6.1249934" fill="white"/>
      <rect x="241.96847" y="740.9098" width="11.4" height="6.1249934" stroke="black" stroke-linecap="round" stroke-linejoin="round" stroke-width=".5"/>
      <rect x="256.78586" y="740.9098" width="11.4" height="6.1249934" fill="white"/>
      <rect x="256.78586" y="740.9098" width="11.4" height="6.1249934" stroke="black" stroke-linecap="round" stroke-linejoin="round" stroke-width=".5"/>
      <rect x="241.96847" y="747.0348" width="11.4" height="6.1249934" fill="white"/>
      <rect x="241.96847" y="747.0348" width="11.4" height="6.1249934" stroke="black" stroke-linecap="round" stroke-linejoin="round" stroke-width=".5"/>
      <rect x="241.96847" y="753.1598" width="11.4" height="6.1249934" fill="white"/>
      <rect x="241.96847" y="753.1598" width="11.4" height="6.1249934" stroke="black" stroke-linecap="round" stroke-linejoin="round" stroke-width=".5"/>
      <rect x="241.96847" y="759.2848" width="11.4" height="6.1249934" fill="white"/>
      <rect x="241.96847" y="759.2848" width="11.4" height="6.1249934" stroke="black" stroke-linecap="round" stroke-linejoin="round" stroke-width=".5"/>
      <rect x="241.96847" y="765.4098" width="11.4" height="6.1249934" fill="white"/>
      <rect x="241.96847" y="765.4098" width="11.4" height="6.1249934" stroke="black" stroke-linecap="round" stroke-linejoin="round" stroke-width=".5"/>
      <rect x="241.96847" y="771.5348" width="11.4" height="6.1249934" fill="white"/>
      <rect x="241.96847" y="771.5348" width="11.4" height="6.1249934" stroke="black" stroke-linecap="round" stroke-linejoin="round" stroke-width=".5"/>
      <rect x="241.96847" y="777.6598" width="11.4" height="6.1249934" fill="white"/>
      <rect x="241.96847" y="777.6598" width="11.4" height="6.1249934" stroke="black" stroke-linecap="round" stroke-linejoin="round" stroke-width=".5"/>
      <rect x="241.96847" y="783.7848" width="11.4" height="6.1249934" fill="white"/>
      <rect x="241.96847" y="783.7848" width="11.4" height="6.1249934" stroke="black" stroke-linecap="round" stroke-linejoin="round" stroke-width=".5"/>
      <rect x="256.78586" y="747.0348" width="11.4" height="6.1249934" fill="white"/>
      <rect x="256.78586" y="747.0348" width="11.4" height="6.1249934" stroke="black" stroke-linecap="round" stroke-linejoin="round" stroke-width=".5"/>
      <rect x="256.78586" y="753.1598" width="11.4" height="6.1249934" fill="white"/>
      <rect x="256.78586" y="753.1598" width="11.4" height="6.1249934" stroke="black" stroke-linecap="round" stroke-linejoin="round" stroke-width=".5"/>
      <rect x="256.78586" y="759.2848" width="11.4" height="6.1249934" fill="white"/>
      <rect x="256.78586" y="759.2848" width="11.4" height="6.1249934" stroke="black" stroke-linecap="round" stroke-linejoin="round" stroke-width=".5"/>
      <rect x="256.78586" y="765.4098" width="11.4" height="6.1249934" fill="white"/>
      <rect x="256.78586" y="765.4098" width="11.4" height="6.1249934" stroke="black" stroke-linecap="round" stroke-linejoin="round" stroke-width=".5"/>
      <rect x="256.78586" y="771.5348" width="11.4" height="6.1249934" fill="white"/>
      <rect x="256.78586" y="771.5348" width="11.4" height="6.1249934" stroke="black" stroke-linecap="round" stroke-linejoin="round" stroke-width=".5"/>
      <rect x="256.78586" y="777.6598" width="11.4" height="6.1249934" fill="white"/>
      <rect x="256.78586" y="777.6598" width="11.4" height="6.1249934" stroke="black" stroke-linecap="round" stroke-linejoin="round" stroke-width=".5"/>
      <rect x="256.78586" y="783.7848" width="11.4" height="6.1249934" fill="white"/>
      <rect x="256.78586" y="783.7848" width="11.4" height="6.1249934" stroke="black" stroke-linecap="round" stroke-linejoin="round" stroke-width=".5"/>
      <ellipse cx="255.07717" cy="712.7072" rx="18.86483" ry="18.622279" fill="url(#Obj_Gradient)"/>
      <ellipse cx="255.07717" cy="712.7072" rx="18.86483" ry="18.622279" stroke="#777878" stroke-linecap="round" stroke-linejoin="round" stroke-width="1"/>
    </g>
  </g>
</svg>
