<?xml version="1.0" encoding="UTF-8" standalone="no"?>
<!DOCTYPE svg PUBLIC "-//W3C//DTD SVG 1.1//EN" "http://www.w3.org/Graphics/SVG/1.1/DTD/svg11.dtd">
<svg xmlns="http://www.w3.org/2000/svg" xmlns:xl="http://www.w3.org/1999/xlink" version="1.1" viewBox="128 420 48 47" width="4pc" height="47pt" xmlns:dc="http://purl.org/dc/elements/1.1/">
  <metadata> Produced by OmniGraffle 7.2.2 
    <dc:date>2017-03-24 03:58:57 +0000</dc:date>
  </metadata>
  <defs>
    <linearGradient x1="0" x2="1" id="Gradient" gradientUnits="userSpaceOnUse">
      <stop offset="0" stop-color="#fdffff"/>
      <stop offset="1" stop-color="#cecece"/>
    </linearGradient>
    <linearGradient id="Obj_Gradient" xl:href="#Gradient" gradientTransform="translate(143.91555 424.1804) rotate(90) scale(8.167653)"/>
    <linearGradient x1="0" x2="1" id="Gradient_2" gradientUnits="userSpaceOnUse">
      <stop offset="0" stop-color="#fdffff"/>
      <stop offset="1" stop-color="#b9b9b9"/>
    </linearGradient>
    <linearGradient id="Obj_Gradient_2" xl:href="#Gradient_2" gradientTransform="translate(155.8388 424.1804) rotate(90) scale(37.2445)"/>
    <linearGradient id="Obj_Gradient_3" xl:href="#Gradient" gradientTransform="translate(131.00805 420.75) rotate(90) scale(15.028482)"/>
  </defs>
  <g stroke="none" stroke-opacity="1" stroke-dasharray="none" fill="none" fill-opacity="1">
    <title>Objects</title>
    <g>
      <title>Small Pump</title>
      <rect x="132.81251" y="424.1804" width="22.206072" height="8.167653" fill="url(#Obj_Gradient)"/>
      <rect x="132.81251" y="424.1804" width="22.206072" height="8.167653" stroke="black" stroke-linecap="round" stroke-linejoin="round" stroke-width=".5"/>
      <path d="M 145.91427 459.383 C 146.24235 459.383 142.55141 462.73174 142.55141 462.73174 L 169.12617 462.40503 L 165.84534 459.13797 C 165.84534 459.13797 145.58618 459.383 145.91427 459.383 Z" fill="#a2a4a4"/>
      <path d="M 145.91427 459.383 C 146.24235 459.383 142.55141 462.73174 142.55141 462.73174 L 169.12617 462.40503 L 165.84534 459.13797 C 165.84534 459.13797 145.58618 459.383 145.91427 459.383 Z" stroke="#737373" stroke-linecap="round" stroke-linejoin="round" stroke-width="1"/>
      <ellipse cx="155.8388" cy="442.80266" rx="18.86483" ry="18.622279" fill="url(#Obj_Gradient_2)"/>
      <ellipse cx="155.8388" cy="442.80266" rx="18.86483" ry="18.622279" stroke="#777878" stroke-linecap="round" stroke-linejoin="round" stroke-width="1"/>
      <path d="M 169.12617 462.40503 L 169.12617 462.40503 L 142.55141 462.73174 L 143.04893 462.682" stroke="black" stroke-linecap="round" stroke-linejoin="round" stroke-width="2"/>
      <rect x="129.2036" y="420.75" width="3.6089184" height="15.028482" fill="url(#Obj_Gradient_3)"/>
      <rect x="129.2036" y="420.75" width="3.6089184" height="15.028482" stroke="black" stroke-linecap="round" stroke-linejoin="round" stroke-width=".5"/>
    </g>
  </g>
</svg>
