<?xml version="1.0" encoding="UTF-8" standalone="no"?>
<!DOCTYPE svg PUBLIC "-//W3C//DTD SVG 1.1//EN" "http://www.w3.org/Graphics/SVG/1.1/DTD/svg11.dtd">
<svg xmlns="http://www.w3.org/2000/svg" xmlns:xl="http://www.w3.org/1999/xlink" version="1.1" viewBox="530 420 47 47" width="47pt" height="47pt" xmlns:dc="http://purl.org/dc/elements/1.1/">
  <metadata> Produced by OmniGraffle 7.2.2 
    <dc:date>2017-03-24 04:06:47 +0000</dc:date>
  </metadata>
  <defs>
    <linearGradient x1="0" x2="1" id="Gradient" gradientUnits="userSpaceOnUse">
      <stop offset="0" stop-color="#fdffff"/>
      <stop offset="1" stop-color="#0097ff"/>
    </linearGradient>
    <linearGradient id="Obj_Gradient" xl:href="#Gradient" gradientTransform="translate(545.71195 424.1804) rotate(90) scale(8.167653)"/>
    <linearGradient x1="0" x2="1" id="Gradient_2" gradientUnits="userSpaceOnUse">
      <stop offset="0" stop-color="#fdffff"/>
      <stop offset="1" stop-color="#0097ff"/>
    </linearGradient>
    <linearGradient id="Obj_Gradient_2" xl:href="#Gradient_2" gradientTransform="translate(557.6352 424.1804) rotate(90) scale(37.2445)"/>
    <linearGradient id="Obj_Gradient_3" xl:href="#Gradient" gradientTransform="translate(532.80446 420.75) rotate(90) scale(15.028482)"/>
  </defs>
  <g stroke="none" stroke-opacity="1" stroke-dasharray="none" fill="none" fill-opacity="1">
    <title>Objects</title>
    <g>
      <title>Small Pump</title>
      <rect x="534.6089" y="424.1804" width="22.206072" height="8.167653" fill="url(#Obj_Gradient)"/>
      <rect x="534.6089" y="424.1804" width="22.206072" height="8.167653" stroke="black" stroke-linecap="round" stroke-linejoin="round" stroke-width=".5"/>
      <path d="M 547.7107 459.383 C 548.03876 459.383 544.3478 462.73174 544.3478 462.73174 L 570.9226 462.40503 L 567.64175 459.13797 C 567.64175 459.13797 547.3826 459.383 547.7107 459.383 Z" fill="#a2a4a4"/>
      <path d="M 547.7107 459.383 C 548.03876 459.383 544.3478 462.73174 544.3478 462.73174 L 570.9226 462.40503 L 567.64175 459.13797 C 567.64175 459.13797 547.3826 459.383 547.7107 459.383 Z" stroke="#737373" stroke-linecap="round" stroke-linejoin="round" stroke-width="1"/>
      <ellipse cx="557.6352" cy="442.80266" rx="18.86483" ry="18.622279" fill="url(#Obj_Gradient_2)"/>
      <ellipse cx="557.6352" cy="442.80266" rx="18.86483" ry="18.622279" stroke="#777878" stroke-linecap="round" stroke-linejoin="round" stroke-width="1"/>
      <path d="M 570.9226 462.40503 L 570.9226 462.40503 L 544.3478 462.73174 L 544.8423 462.65757" stroke="black" stroke-linecap="round" stroke-linejoin="round" stroke-width="2"/>
      <rect x="531" y="420.75" width="3.6089184" height="15.028482" fill="url(#Obj_Gradient_3)"/>
      <rect x="531" y="420.75" width="3.6089184" height="15.028482" stroke="black" stroke-linecap="round" stroke-linejoin="round" stroke-width=".5"/>
    </g>
  </g>
</svg>
