<?xml version="1.0" encoding="UTF-8" standalone="no"?>
<!DOCTYPE svg PUBLIC "-//W3C//DTD SVG 1.1//EN" "http://www.w3.org/Graphics/SVG/1.1/DTD/svg11.dtd">
<svg xmlns="http://www.w3.org/2000/svg" xmlns:xl="http://www.w3.org/1999/xlink" version="1.1" viewBox="443 65 59 102" width="59pt" height="102pt" xmlns:dc="http://purl.org/dc/elements/1.1/">
  <metadata> Produced by OmniGraffle 7.2.2 
    <dc:date>2017-03-24 03:55:24 +0000</dc:date>
  </metadata>
  <defs>
    <linearGradient x1="0" x2="1" id="Gradient" gradientUnits="userSpaceOnUse">
      <stop offset="0" stop-color="#fdffff"/>
      <stop offset="1" stop-color="#56dd61"/>
    </linearGradient>
    <linearGradient id="Obj_Gradient" xl:href="#Gradient" gradientTransform="translate(472.75 103.8356) rotate(90) scale(57)"/>
  </defs>
  <g stroke="none" stroke-opacity="1" stroke-dasharray="none" fill="none" fill-opacity="1">
    <title>Objects</title>
    <g>
      <title>SWLP</title>
      <rect x="467.25" y="87.5856" width="11" height="17" fill="white"/>
      <rect x="467.25" y="87.5856" width="11" height="17" stroke="#898989" stroke-linecap="round" stroke-linejoin="round" stroke-width="1"/>
      <path d="M 457.625 157.7106 C 458.125 157.7106 452.5 162.8356 452.5 162.8356 L 493 162.3356 L 488 157.3356 C 488 157.3356 457.125 157.7106 457.625 157.7106 Z" fill="#a2a4a4"/>
      <path d="M 457.625 157.7106 C 458.125 157.7106 452.5 162.8356 452.5 162.8356 L 493 162.3356 L 488 157.3356 C 488 157.3356 457.125 157.7106 457.625 157.7106 Z" stroke="#737373" stroke-linecap="round" stroke-linejoin="round" stroke-width="1"/>
      <ellipse cx="472.75" cy="132.3356" rx="28.750046" ry="28.500046" fill="url(#Obj_Gradient)"/>
      <ellipse cx="472.75" cy="132.3356" rx="28.750046" ry="28.500046" stroke="#777878" stroke-linecap="round" stroke-linejoin="round" stroke-width="1"/>
      <path d="M 492.5 162.3356 L 493 162.3356 L 452.5 162.8356 L 452.5 162.8356" stroke="black" stroke-linecap="round" stroke-linejoin="round" stroke-width="2"/>
      <rect x="461.5" y="65.8356" width="22" height="21.5" fill="black"/>
      <rect x="461.5" y="65.8356" width="22" height="21.5" stroke="#898989" stroke-linecap="round" stroke-linejoin="round" stroke-width="1"/>
    </g>
  </g>
</svg>
