<?xml version="1.0" encoding="UTF-8" standalone="no"?>
<!DOCTYPE svg PUBLIC "-//W3C//DTD SVG 1.1//EN" "http://www.w3.org/Graphics/SVG/1.1/DTD/svg11.dtd">
<svg xmlns="http://www.w3.org/2000/svg" xmlns:xl="http://www.w3.org/1999/xlink" version="1.1" viewBox="341 65 60 102" width="5pc" height="102pt" xmlns:dc="http://purl.org/dc/elements/1.1/">
  <metadata> Produced by OmniGraffle 7.2.2 
    <dc:date>2017-03-24 03:55:24 +0000</dc:date>
  </metadata>
  <defs>
    <linearGradient x1="0" x2="1" id="Gradient" gradientUnits="userSpaceOnUse">
      <stop offset="0" stop-color="#fdffff"/>
      <stop offset="1" stop-color="#ff7e79"/>
    </linearGradient>
    <linearGradient id="Obj_Gradient" xl:href="#Gradient" gradientTransform="translate(371 103.8356) rotate(90) scale(57)"/>
  </defs>
  <g stroke="none" stroke-opacity="1" stroke-dasharray="none" fill="none" fill-opacity="1">
    <title>Objects</title>
    <g>
      <title>SWLP</title>
      <ellipse cx="371" cy="132.3356" rx="28.750046" ry="28.500046" fill="url(#Obj_Gradient)"/>
      <ellipse cx="371" cy="132.3356" rx="28.750046" ry="28.500046" stroke="#777878" stroke-linecap="round" stroke-linejoin="round" stroke-width="1"/>
      <rect x="365.5" y="87.5856" width="11" height="17" fill="white"/>
      <rect x="365.5" y="87.5856" width="11" height="17" stroke="#898989" stroke-linecap="round" stroke-linejoin="round" stroke-width="1"/>
      <path d="M 355.875 157.7106 C 356.375 157.7106 350.75 162.8356 350.75 162.8356 L 391.25 162.3356 L 386.25 157.3356 C 386.25 157.3356 355.375 157.7106 355.875 157.7106 Z" fill="#a2a4a4"/>
      <path d="M 355.875 157.7106 C 356.375 157.7106 350.75 162.8356 350.75 162.8356 L 391.25 162.3356 L 386.25 157.3356 C 386.25 157.3356 355.375 157.7106 355.875 157.7106 Z" stroke="#737373" stroke-linecap="round" stroke-linejoin="round" stroke-width="1"/>
      <path d="M 390.75 162.3356 L 391.25 162.3356 L 350.75 162.8356 L 350.75 162.8356" stroke="black" stroke-linecap="round" stroke-linejoin="round" stroke-width="2"/>
      <rect x="359.75" y="65.8356" width="22" height="21.5" fill="black"/>
      <rect x="359.75" y="65.8356" width="22" height="21.5" stroke="#898989" stroke-linecap="round" stroke-linejoin="round" stroke-width="1"/>
    </g>
  </g>
</svg>
