<?xml version="1.0" encoding="UTF-8" standalone="no"?>
<!DOCTYPE svg PUBLIC "-//W3C//DTD SVG 1.1//EN" "http://www.w3.org/Graphics/SVG/1.1/DTD/svg11.dtd">
<svg xmlns="http://www.w3.org/2000/svg" xmlns:xl="http://www.w3.org/1999/xlink" version="1.1" viewBox="239 63 60 102" width="5pc" height="102pt" xmlns:dc="http://purl.org/dc/elements/1.1/">
  <metadata> Produced by OmniGraffle 7.2.2 
    <dc:date>2017-03-24 03:55:24 +0000</dc:date>
  </metadata>
  <defs>
    <linearGradient x1="0" x2="1" id="Gradient" gradientUnits="userSpaceOnUse">
      <stop offset="0" stop-color="#fdffff"/>
      <stop offset="1" stop-color="#f2e56b"/>
    </linearGradient>
    <linearGradient id="Obj_Gradient" xl:href="#Gradient" gradientTransform="translate(269 102.4178) rotate(90) scale(57)"/>
  </defs>
  <g stroke="none" stroke-opacity="1" stroke-dasharray="none" fill="none" fill-opacity="1">
    <title>Objects</title>
    <g>
      <title>SWLP</title>
      <ellipse cx="269" cy="130.9178" rx="28.750046" ry="28.500046" fill="url(#Obj_Gradient)"/>
      <ellipse cx="269" cy="130.9178" rx="28.750046" ry="28.500046" stroke="#777878" stroke-linecap="round" stroke-linejoin="round" stroke-width="1"/>
      <rect x="263.5" y="86.1678" width="11" height="17" fill="white"/>
      <rect x="263.5" y="86.1678" width="11" height="17" stroke="#898989" stroke-linecap="round" stroke-linejoin="round" stroke-width="1"/>
      <path d="M 253.875 156.2928 C 254.375 156.2928 248.75 161.4178 248.75 161.4178 L 289.25 160.9178 L 284.25 155.9178 C 284.25 155.9178 253.375 156.2928 253.875 156.2928 Z" fill="#a2a4a4"/>
      <path d="M 253.875 156.2928 C 254.375 156.2928 248.75 161.4178 248.75 161.4178 L 289.25 160.9178 L 284.25 155.9178 C 284.25 155.9178 253.375 156.2928 253.875 156.2928 Z" stroke="#737373" stroke-linecap="round" stroke-linejoin="round" stroke-width="1"/>
      <path d="M 288.76493 160.79653 L 289.25 160.9178 L 248.75 161.4178 L 248.75 161.4178" stroke="black" stroke-linecap="round" stroke-linejoin="round" stroke-width="2"/>
      <rect x="257.75" y="64.4178" width="22" height="21.5" fill="black"/>
      <rect x="257.75" y="64.4178" width="22" height="21.5" stroke="#898989" stroke-linecap="round" stroke-linejoin="round" stroke-width="1"/>
    </g>
  </g>
</svg>
