<?xml version="1.0" encoding="UTF-8" standalone="no"?>
<!DOCTYPE svg PUBLIC "-//W3C//DTD SVG 1.1//EN" "http://www.w3.org/Graphics/SVG/1.1/DTD/svg11.dtd">
<svg xmlns="http://www.w3.org/2000/svg" xmlns:xl="http://www.w3.org/1999/xlink" version="1.1" viewBox="341 198 59 101" width="59pt" height="101pt" xmlns:dc="http://purl.org/dc/elements/1.1/">
  <metadata> Produced by OmniGraffle 7.2.2 
    <dc:date>2017-03-24 04:06:47 +0000</dc:date>
  </metadata>
  <defs>
    <linearGradient x1="0" x2="1" id="Gradient" gradientUnits="userSpaceOnUse">
      <stop offset="0" stop-color="#fdffff"/>
      <stop offset="1" stop-color="#ff7e79"/>
    </linearGradient>
    <linearGradient id="Obj_Gradient" xl:href="#Gradient" gradientTransform="translate(370.5 260) rotate(-90) scale(57)"/>
  </defs>
  <g stroke="none" stroke-opacity="1" stroke-dasharray="none" fill="none" fill-opacity="1">
    <title>Objects</title>
    <g>
      <title>SWLP</title>
      <rect x="365" y="259.25" width="11" height="17" fill="white"/>
      <rect x="365" y="259.25" width="11" height="17" stroke="#898989" stroke-linecap="round" stroke-linejoin="round" stroke-width="1"/>
      <path d="M 385.625 206.125 C 385.125 206.125 390.75 201 390.75 201 L 350.25 201.5 L 355.25 206.5 C 355.25 206.5 386.125 206.125 385.625 206.125 Z" fill="#a2a4a4"/>
      <path d="M 385.625 206.125 C 385.125 206.125 390.75 201 390.75 201 L 350.25 201.5 L 355.25 206.5 C 355.25 206.5 386.125 206.125 385.625 206.125 Z" stroke="#737373" stroke-linecap="round" stroke-linejoin="round" stroke-width="1"/>
      <ellipse cx="370.5" cy="231.5" rx="28.750046" ry="28.500046" fill="url(#Obj_Gradient)"/>
      <ellipse cx="370.5" cy="231.5" rx="28.750046" ry="28.500046" stroke="#777878" stroke-linecap="round" stroke-linejoin="round" stroke-width="1"/>
      <path d="M 350.25 201.5 L 350.25 201.5 L 390.75 201 L 390.75 201" stroke="black" stroke-linecap="round" stroke-linejoin="round" stroke-width="2"/>
      <rect x="359.75" y="276.5" width="22" height="21.5" fill="black"/>
      <rect x="359.75" y="276.5" width="22" height="21.5" stroke="#898989" stroke-linecap="round" stroke-linejoin="round" stroke-width="1"/>
    </g>
  </g>
</svg>
